<svg width="567" height="459" viewBox="0 0 567 459" fill="none" xmlns="http://www.w3.org/2000/svg">
<path d="M321.774 109.568L321.161 108.721L321.467 107.295L319.749 105.662L318.707 105.331L317.726 105.454L317.358 106.425L316.929 106.942L312.328 102.435L308.157 97.4117L307.481 96.1095L307.235 94.291L303.31 91.0863L302.634 89.7842L301.469 88.5438L300.855 87.6963L299.874 87.8199L299.384 87.8816L299.445 88.3363L299.507 88.7909L298.526 88.9145L296.87 87.7359L294.783 83.3748L290.856 76.4712L288.892 73.0195L288.094 70.808L287.419 69.5059L287.663 67.6256L287.048 63.0792L285.084 59.6274L283.98 58.8417L284.224 56.9613L285.205 56.8378L285.511 55.4121L285.327 54.0481L284.223 53.2624L284.038 51.8985L285.019 51.7749L285.142 52.6842L286.308 53.9246L286.983 55.2267L288.087 56.0125L289.13 56.3435L292.623 52.6668L293.235 49.8155L292.373 43.4505L288.263 38.8819L283.601 33.9204L283.293 31.6473L282.066 29.9522L280.41 28.7737L279.858 28.3808L279.673 27.0169L270.044 22.2186L262.87 20.8102L256.37 20.7041L253.856 20.5583L251.403 20.8672L237.669 22.597L236.259 23.2369L234.787 23.4223L233.745 23.0912L232.764 23.2147L229.024 25.0729L228.105 25.6511L227.737 26.6221L224.794 26.9928L219.399 27.6723L216.64 29.4069L211.797 30.4793L199.659 36.6319L194.571 39.5847L192.67 40.2864L191.751 40.8646L191.445 42.2903L191.2 44.1706L190.771 44.6871L189.79 44.8106C189.606 44.6797 189.324 44.3145 189.667 43.9013C190.01 43.4882 189.074 43.2054 188.563 43.1156L187.336 41.4206L185.312 41.2131L182.921 41.9766L179.243 44.2894L175.933 45.6311L173.909 45.4236L169.616 43.1899L154.465 30.7641L141.462 23.1539L139.439 22.9464L137.844 22.2225L136.74 21.4367L134.778 21.6839L133.307 21.8692L130.364 22.2398L128.954 22.8798L128.586 23.8509L128.832 25.6694L127.607 27.6733L124.052 30.8954L124.236 32.2593L126.629 35.1947L128.777 40.0104L128.471 41.4361L128.902 44.6185L130.252 47.2228L130.927 48.525L129.15 50.136L128.23 50.7142L128.292 51.1688L128.782 51.1071L129.702 50.5289L131.05 49.4342L132.031 49.3107L132.645 50.1582" stroke="black" stroke-opacity="0.55" stroke-width="0.5"/>
<path d="M132.188 49.2634L133.967 51.3602L134.275 53.6421L137.282 57.4409L138.39 61.943L141.458 66.1982L148.332 76.4724L167.169 101.485L167.721 101.88L167.845 102.793L167.478 103.767L168.154 105.075L173.067 115.596L180.863 129.003L181.785 132.136L183.136 134.751L191.11 142.101L195.096 145.777L198.778 150.883L200.191 153.954L203.197 157.753L207.802 165.992L210.565 171.678L214.552 175.354L220.931 181.977L225.651 183.703L231.479 189.932L232.154 191.239L231.788 192.214L232.402 193.065L232.525 193.977L233.139 194.828L235.96 197.258L237.434 200.786L250.572 224.196L252.17 228.636L252.726 232.744L254.69 236.209L256.288 240.65L264.204 251.257L271.011 257.362L288.367 271.422L297.387 282.818L304.071 288.01L314.68 296.422L324.063 303.131L327.74 304.524L331.052 306.892L333.873 309.322L345.158 319.04L356.991 325.441L359.383 328.389L361.776 331.336L365.887 335.925L368.893 339.723L369.264 342.462L372.085 344.891L373.436 347.506L376.257 349.936L376.504 351.761L378.407 354.771L380.186 356.868L388.101 367.475L390.189 371.853L393.443 377.478L393.69 379.303L395.288 383.744" stroke="black" stroke-opacity="0.55" stroke-width="0.5"/>
<path d="M395.253 383.727L395.623 386.462L396.485 389.136L397.715 390.836L398.7 394.421L398.393 395.851L398.025 396.825L398.21 398.193L399.44 399.893L400.487 403.934L400.181 405.364L400.304 406.275L402.026 407.913L403.686 409.095L412.171 416.373L419.612 423.319L429.08 430.473L430.495 433.541L433.2 435.055L440.7 438.747L441.254 439.141L447.215 438.854L454.098 437.987L456.25 439.107L458.708 438.798L459.323 439.648L463.318 439.608L472.048 445L473.217 446.244L477.212 446.205L479.178 445.957L482.19 446.042L485.816 446.976L489.32 446.998L499.459 444.33L502.716 442.529L508.184 438.595L511.44 436.793L511.193 434.97L512.115 434.39L513.528 433.748L513.896 432.774L514.203 431.345L515.554 430.247L516.476 429.667L518.381 428.964L518.811 428.446L518.688 427.534L525.877 425.237L529.747 420.577L532.573 419.293L532.942 418.32L533.925 418.196L534.97 418.528L543.266 417.019L548.121 415.944L549.411 414.391L549.287 413.479L548.917 410.743L549.224 409.314L550.207 409.19L550.822 410.04L551.314 409.978L551.805 409.916L551.559 408.092L552.48 407.512L553.34 406.477L554.568 404.467L556.965 403.702L557.886 403.122L560.59 400.927L561.264 398.523L561.448 396.182L559.664 394.088L558.434 392.388L558.126 390.108L558.617 390.046L558.494 389.135L557.879 388.285L554.557 382.211L553.448 377.714L548.221 372.344L547.359 369.671L546.989 366.935L545.636 364.323L537.644 360.693L536.782 358.019L536.718 353.854L535.918 351.636L535.057 348.963L531.551 345.231L529.338 343.655L523.743 339.259L523.251 339.321L522.33 339.9L521.408 340.48L520.363 340.148L520.301 339.692L520.731 339.174L520.608 338.262L519.009 337.536L512.739 335.544L495.217 324.303L493.496 322.666L492.327 321.422L490.176 320.302L486.119 319.885L481.939 318.557L479.419 318.41L466.636 320.02L464.916 322.092L462.52 322.857L460.247 324.535L458.833 325.176L449.984 326.291L445.187 320.403L445.37 318.062L444.323 314.02L441.676 305.543L440.999 304.238L439.524 304.423L438.603 305.003L437.189 305.645L436.206 305.769L438.479 304.091L438.909 303.573L438.724 302.206L436.57 297.376L434.295 295.344L433.495 293.127L431.959 292.856L431.405 292.462L429.622 290.369L429.56 289.913L430.482 289.333L431.465 289.209L431.833 288.235L431.586 286.412L431.34 284.588L430.233 283.8L429.616 279.241L426.664 275.903L426.171 272.255L426.969 270.764L426.784 269.396L425.554 267.696L422.663 264.814L415.9 259.174L415.347 258.78L414.546 256.563L408.828 251.255L408.089 249.493L408.028 249.037L409.503 248.851L410.916 248.21L410.607 245.93L410.791 243.588L409.312 236.355L405.192 231.774L404.268 228.644L403.406 225.971L401.87 225.7L399.35 225.554L396.889 222.154L394.244 217.387L393.199 217.055L392.522 215.749L391.599 212.619L390.675 209.49L389.69 205.904L388.583 205.116L389.382 203.625L390.857 203.439L391.225 202.465L390.548 201.159L387.781 199.189L384.646 198.193L381.265 195.373L377.023 193.589L374.073 193.96L364.178 194.743L362.148 190.825L361.963 189.457L362.638 187.054L362.144 183.407L361.344 181.189L360.359 177.603L359.25 173.106L360.602 172.008L363.06 171.699L364.903 170.539L365.825 169.959L365.578 168.136L365.946 167.162L366.438 167.1L367.545 167.888L367.606 168.344L368.221 169.194L369.881 170.376L371.91 170.584L374.798 169.757L378.791 166.008L379.527 164.06L380.387 163.025L380.756 162.051L381.124 161.077L379.52 149.223L378.843 147.917L377.183 146.735L374.231 143.397L373.616 142.548L375.151 139.108L376.134 138.985L378.531 138.219L379.267 136.271L379.02 134.448L377.914 133.66L378.159 131.774L379.142 131.65L379.018 130.738L378.465 130.344L377.85 129.494L377.971 126.697L379.261 125.143L379.138 124.232L378.523 123.382L378.399 122.47L378.768 121.496L378.153 120.646L375.878 118.614L374.154 113.267" stroke="black" stroke-opacity="0.55" stroke-width="0.5"/>
<path d="M321.774 109.568L328.746 112.956L330.539 115.1L333.381 117.586L335.844 117.276L338.244 116.499L339.722 116.313L341.262 116.593L344.281 116.687L347.97 114.326L349.511 114.606L350.256 116.408L350.811 116.812L354.26 116.378L355.548 114.794L356.711 112.278L360.514 107.059L362.358 105.879L365.806 105.444L366.855 105.786L367.84 105.662L368.762 105.072L369.255 105.01L369.381 105.942L368.951 106.47L371.111 107.62L373.334 109.236L374.268 112.436L374.331 112.902" stroke="black" stroke-opacity="0.55" stroke-width="0.5"/>
<path d="M79.0495 162.249L84.8012 156.878L90.8621 153.791L99.6821 152.68L108.198 153.002L113.958 155.064L119.477 159.016L119.662 160.386L121.87 161.967L124.814 165.313L125.675 167.993L126.964 170.154L129.419 173.562L130.461 173.896L131.564 174.686L131.812 176.513L134.266 179.922L136.045 182.021L139.356 184.392L143.833 188.01L149.104 190.134L150.697 190.863L153.699 190.949L155.355 192.135L156.03 193.444L157.196 194.691L159.769 195.296L166.881 199.976L168.846 203.446L169.217 206.187L170.749 206.459L170.934 207.83L171.058 208.744L171.733 210.052L174.369 211.115L176.638 213.152L177.313 214.461L178.293 214.338L179.887 215.066L180.011 215.98L181.114 216.77L182.156 217.104L182.589 220.302L183.631 220.635L185.348 222.278L186.513 223.525L186.575 223.982L188.293 225.624L189.03 227.39L191.113 228.057L191.851 229.823L193.449 234.268L194.553 235.058L195.656 235.849L205.342 241.134L215.946 245.839L218.519 246.444L221.217 247.963L222.996 250.063L225.203 251.643L226.492 253.804L228.209 255.447L231.03 257.879L233.3 259.917L236.915 260.855L240.592 262.251L243.965 265.079L245.744 267.178L247.095 269.796L250.834 271.648L255.739 274.748L257.394 275.933L258.864 275.748L260.03 276.995L261.195 278.243L261.747 278.638L263.954 280.218L267.941 283.898L269.72 285.998L274.748 290.011L278.059 292.382L283.211 297.309L285.418 298.89L287.626 300.47L289.343 302.113L291.798 305.521L294.619 307.953L296.212 308.682L297.316 309.472L297.44 310.386L298.053 311.238L299.342 313.399L301.488 314.523L303.143 315.708L308.666 323.377L309.342 324.686L309.651 326.97L310.816 328.217L311.982 329.464L312.167 330.835L311.801 331.811L311.006 333.305L309.722 334.86L308.252 335.046L307.885 336.021L308.009 336.935L308.623 337.787L308.746 338.701L307.766 338.824L306.786 338.947L306.358 339.466L305.502 340.503L304.522 340.627L299.132 341.305L294.17 341.466L289.208 341.626L288.166 341.292L287.186 341.416L286.206 341.539L285.778 342.058L282.838 342.428L281.92 343.008L281.002 343.589L276.654 344.601L267.896 346.169L265.997 346.873L263.119 347.7L257.239 348.44L253.809 348.872L249.214 348.057L241.493 346.241L235.056 342.87L231.132 339.647L229.291 337.091L226.898 334.14L223.892 330.336L223.392 322.965L222.465 316.111L221.785 311.086L220.924 308.406L219.573 305.788L217.547 301.862L215.216 299.367L211.715 291.909L208.033 286.797L206.501 286.525L206.315 285.154L207.11 283.66L205.331 281.561L204.103 279.857L202.448 278.672L201.159 276.511L199.87 274.35L198.581 272.189L197.781 269.966L196.735 265.916L195.075 261.014L193.662 257.939L192.311 255.321L189.795 251.456L185.009 245.553L183.354 244.368L182.493 241.688L181.694 239.466L180.528 238.219L179.301 236.514L177.645 235.329L175.99 234.144L172.189 231.834L168.94 229.92L166.609 227.426L165.933 226.117L164.34 225.388L162.318 225.178L160.234 224.511L156.985 222.597L155.943 222.264L154.963 222.387L151.904 225.56L148.536 226.449L146.7 227.61L144.74 227.857L141.491 225.943L137.628 223.176L136.034 222.448L134.992 222.114L133.951 221.781L133.399 221.386L132.357 221.052L131.377 221.176L131.439 221.633L131.562 222.546L131.748 223.917L132.362 224.769L131.995 225.745L131.567 226.263L131.691 227.177L132.242 227.572L132.304 228.029L131.876 228.547L130.958 229.128L130.468 229.189L129.488 229.313L128.998 229.375L129.921 232.511L130.168 234.339L130.539 237.08L130.786 238.907L129.992 240.401L129.687 241.834L128.831 242.871L127.485 243.97L125.648 245.13L124.24 245.772L123.812 246.291L121.852 246.538L121.3 246.143L120.748 245.748L120.196 245.352L119.706 245.414L120.016 247.698L120.691 249.007L122.779 253.391L124.007 255.095L124.744 256.861L125.419 258.17L125.667 259.997L126.77 260.788L135.6 267.11L138.301 272.346L138.611 274.63L138.796 276.001L138.92 276.915L138.553 277.89L139.167 278.742L141.988 281.175L143.891 284.188" stroke="black" stroke-opacity="0.55" stroke-width="0.5"/>
<path d="M143.925 284.211L147.548 288.861L148.776 290.563L149.576 292.784L150.437 295.46L150.869 298.655L150.626 300.543L149.59 307.636L148.183 311.991L146.959 314.002L145.182 315.619L142.914 317.297L136.231 319.531L130.101 322.16L121.089 325.616L105.39 327.593L99.3179 326.966L97.1703 325.843L92.381 319.948L90.5387 317.395L87.777 315.421L80.2259 307.552L78.3836 304.999L75.8654 301.139L72.5513 298.771L69.4843 298.229L66.7226 296.255L61.6933 295.96L57.6451 295.542L53.2882 292.841L51.8746 289.77L47.5794 287.526L39.9119 286.17L23.2323 288.271L20.5323 286.754L19.6712 284.077L18.8718 281.857L15.5577 279.489L13.8318 270.422L13.0324 268.202L13.9483 263.909L14.2535 262.478L17.3135 255.594L16.5758 253.83L15.9 252.522L16.8811 252.399L17.4952 253.25L18.1093 254.101L23.1316 246.969L23.0698 246.513L22.9463 245.6L32.689 236.482L33.1178 235.963L32.5654 235.569L31.9513 234.718L31.8278 233.805L32.7472 233.225L33.2378 233.163L34.0336 231.67L35.0148 231.547L35.5671 231.941L36.0577 231.88L35.9342 230.967L35.3201 230.116L35.2583 229.659L36.6065 228.561L36.7883 226.217L37.1553 225.242L41.1964 218.235L44.3181 211.807L46.7056 207.328L49.2785 204.219L51.9132 201.566L55.4672 198.333L61.8994 190.56L63.3094 189.918L64.1052 188.426L64.7776 186.02L66.0605 180.752L67.5287 176.854L70.0398 173.288L71.388 172.19L72.6744 170.635L72.9797 169.204L73.1614 166.86L74.0191 165.824L75.3673 164.725L76.7155 163.627L77.6349 163.047L79.0448 162.405L79.4737 161.887" stroke="black" stroke-opacity="0.55" stroke-width="0.5"/>
</svg>
